<svg width="66" height="16" viewBox="0 0 66 16" fill="none" xmlns="http://www.w3.org/2000/svg">
<g id="Group 35708">
<g id="Bildu">
<path d="M0 15.7503V0.249674H6.51975C7.45015 0.249674 8.24863 0.416124 8.91518 0.749025C9.59562 1.08192 10.1164 1.55353 10.4774 2.16385C10.8524 2.76029 11.0398 3.47464 11.0398 4.30689C11.0398 5.06979 10.8385 5.76333 10.4358 6.38752C10.0469 6.99783 9.47064 7.47638 8.70688 7.82315L8.68605 7.05332C9.35261 7.30299 9.90113 7.63589 10.3316 8.05202C10.776 8.45427 11.1093 8.92588 11.3314 9.46684C11.5536 9.99393 11.6647 10.5557 11.6647 11.1521C11.6647 12.5808 11.2065 13.7044 10.29 14.5228C9.37344 15.3411 8.12365 15.7503 6.54058 15.7503H0ZM2.04133 13.8778H6.6239C7.52652 13.8778 8.24862 13.635 8.7902 13.1495C9.33178 12.6641 9.60257 12.0052 9.60257 11.173C9.60257 10.3407 9.33178 9.68184 8.7902 9.19636C8.24862 8.69701 7.52652 8.44733 6.6239 8.44733H2.04133V13.8778ZM2.04133 6.61639H6.47809C7.22796 6.61639 7.83203 6.40139 8.29029 5.97139C8.74854 5.52752 8.97767 4.96576 8.97767 4.28609C8.97767 3.57867 8.74854 3.03771 8.29029 2.6632C7.83203 2.28869 7.22796 2.10143 6.47809 2.10143H2.04133V6.61639Z" fill="#0F282F"/>
<path d="M14.1931 15.7503V4.53576H16.1303V15.7503H14.1931ZM14.1931 2.74642V0.249674H16.1303V2.74642H14.1931Z" fill="#0F282F"/>
<path d="M19.1361 15.7503V0H21.0733V15.7503H19.1361Z" fill="#0F282F"/>
<path d="M29.1825 16C28.1271 16 27.1759 15.7434 26.3288 15.2302C25.4956 14.7169 24.836 14.0165 24.3499 13.1287C23.8639 12.241 23.6209 11.2492 23.6209 10.1534C23.6209 9.02991 23.8639 8.03121 24.3499 7.15735C24.836 6.26961 25.4956 5.56914 26.3288 5.05592C27.1759 4.5427 28.1271 4.28609 29.1825 4.28609C30.1129 4.28609 30.9391 4.48721 31.6612 4.88947C32.3833 5.27785 32.9527 5.80494 33.3693 6.47074L33.0568 6.94929V0H35.0148V15.7503H33.1193V13.3576L33.3693 13.6905C32.9805 14.4257 32.4111 14.9944 31.6612 15.3966C30.9252 15.7989 30.099 16 29.1825 16ZM29.3491 14.1274C30.0573 14.1274 30.6892 13.9541 31.2446 13.6073C31.8001 13.2605 32.2375 12.7889 32.5569 12.1925C32.8902 11.5821 33.0568 10.9025 33.0568 10.1534C33.0568 9.39055 32.8902 8.71088 32.5569 8.11443C32.2375 7.50412 31.8001 7.02557 31.2446 6.6788C30.6892 6.33203 30.0573 6.15865 29.3491 6.15865C28.6548 6.15865 28.0229 6.33897 27.4536 6.69961C26.8981 7.04638 26.4607 7.51799 26.1413 8.11443C25.8219 8.69701 25.6622 9.37668 25.6622 10.1534C25.6622 10.9025 25.8219 11.5821 26.1413 12.1925C26.4607 12.7889 26.8981 13.2605 27.4536 13.6073C28.0091 13.9541 28.6409 14.1274 29.3491 14.1274Z" fill="#0F282F"/>
<path d="M41.9917 16C41.1863 16 40.4572 15.8127 39.8046 15.4382C39.1658 15.0637 38.6659 14.5436 38.3048 13.8778C37.9576 13.1981 37.7841 12.4213 37.7841 11.5475V4.53576H39.7212V11.3394C39.7212 11.8942 39.8323 12.3797 40.0545 12.7958C40.2906 13.212 40.61 13.5379 41.0127 13.7737C41.4293 14.0095 41.9014 14.1274 42.4291 14.1274C42.9568 14.1274 43.422 14.0095 43.8247 13.7737C44.2413 13.5379 44.5607 13.1981 44.7829 12.7542C45.019 12.3104 45.137 11.7833 45.137 11.173V4.53576H47.095V15.7503H45.1995V13.5657L45.5119 13.7529C45.2481 14.4603 44.7968 15.0152 44.158 15.4174C43.5331 15.8058 42.811 16 41.9917 16Z" fill="#0F282F"/>
</g>
<path id="Intersect" fill-rule="evenodd" clip-rule="evenodd" d="M60.1732 0L58.0459 2.22191L55.9186 0H53.2806L58.0459 4.97729L62.8112 0H60.1732ZM66.0015 3.21351L61.053 7.99926L66.0015 12.785V10.1332L63.795 7.99926L66.0015 5.86531V3.21351ZM62.8118 16L58.0459 11.0221L53.28 16H55.918L58.0459 13.7774L60.1738 16H62.8118ZM50.082 12.7933L55.0392 7.9991L50.082 3.20495V5.85545L52.2986 7.9991L50.082 10.1428V12.7933Z" fill="#0F282F"/>
</g>
</svg>
