<svg width="24" height="24" viewBox="0 0 24 24" fill="none" xmlns="http://www.w3.org/2000/svg">
<path fill-rule="evenodd" clip-rule="evenodd" d="M9.60162 21.5533C9.60162 21.5533 10.5901 22.0748 11.5192 22.3834C11.5192 22.3834 12 22.5564 12.4808 22.3835C12.4808 22.3835 13.4099 22.0748 14.3984 21.5533C14.3984 21.5533 15.9875 20.715 17.2493 19.5538C17.2493 19.5538 21 16.1021 21 10.7531V5.25C21 5.25 21 4.62868 20.5607 4.18934C20.5607 4.18934 20.1213 3.75 19.5 3.75H4.5C4.5 3.75 3.87868 3.75 3.43934 4.18934C3.43934 4.18934 3 4.62868 3 5.25V10.7531C3 10.7531 3 16.1021 6.75072 19.5538C6.75072 19.5538 8.01252 20.715 9.60162 21.5533ZM13.6985 20.2266C13.6985 20.2266 12.8152 20.6926 12 20.9626C12 20.9626 11.1848 20.6926 10.3015 20.2266C10.3015 20.2266 8.88483 19.4793 7.76647 18.4501C7.76647 18.4501 4.5 15.444 4.5 10.7531V5.25H19.5V10.7531C19.5 10.7531 19.5 15.444 16.2335 18.4501C16.2335 18.4501 15.1152 19.4793 13.6985 20.2266Z" fill="#D9D9D9"/>
<path d="M11.25 9V12.75C11.25 13.1642 11.5858 13.5 12 13.5C12.4142 13.5 12.75 13.1642 12.75 12.75V9C12.75 8.58579 12.4142 8.25 12 8.25C11.5858 8.25 11.25 8.58579 11.25 9Z" fill="#D9D9D9"/>
<path d="M13.125 16.125C13.125 16.7463 12.6213 17.25 12 17.25C11.3787 17.25 10.875 16.7463 10.875 16.125C10.875 15.5037 11.3787 15 12 15C12.6213 15 13.125 15.5037 13.125 16.125Z" fill="#D9D9D9"/>
</svg>
